<svg xmlns:xlink="http://www.w3.org/1999/xlink" xmlns="http://www.w3.org/2000/svg" width="2298" height="1700" viewBox="0 0 2298 1700" fill="none">
<path d="M2133.78 1597.88C2136.5 1597.88 2138.55 1599.34 2138.55 1601.87H2137.33C2137.24 1599.97 2135.71 1598.92 2133.8 1598.92C2132.05 1598.92 2130.59 1599.64 2130.59 1601.48C2130.59 1602.81 2131.67 1603.22 2132.39 1603.4L2135.53 1604.18C2138.01 1604.79 2139 1605.89 2139 1607.6C2139 1608.86 2138.32 1611.27 2134.09 1611.27C2130.92 1611.27 2128.96 1609.81 2128.96 1607.09V1606.77H2130.18V1606.88C2130.18 1609.24 2131.78 1610.23 2134.34 1610.23C2135.8 1610.23 2137.78 1609.45 2137.78 1607.62C2137.78 1606.45 2136.88 1605.73 2135.2 1605.31L2132.27 1604.59C2130.36 1604.12 2129.37 1603.22 2129.37 1601.5C2129.37 1600.04 2130.38 1597.88 2133.78 1597.88ZM2142.82 1598.15H2144.04V1606.12C2144.04 1608.71 2145.1 1610.23 2147.8 1610.23C2150.39 1610.23 2151.58 1608.88 2151.58 1606.1V1598.15H2152.81V1606.34C2152.81 1609.34 2151.1 1611.27 2147.8 1611.27C2144.44 1611.27 2142.82 1609.24 2142.82 1606.34V1598.15ZM2157.23 1598.15H2159.03L2163.47 1609.42L2167.9 1598.15H2169.7V1611H2168.48V1599.89H2168.44L2164.05 1611H2162.9L2158.49 1599.89H2158.45V1611H2157.23V1598.15ZM2174.22 1598.15H2176.02L2180.47 1609.42L2184.9 1598.15H2186.7V1611H2185.47V1599.89H2185.44L2181.04 1611H2179.89L2175.48 1599.89H2175.45V1611H2174.22V1598.15ZM2191.25 1598.15H2200.13V1599.19H2192.48V1603.84H2199.64V1604.88H2192.48V1609.96H2200.22V1611H2191.25V1598.15ZM2203.92 1598.15H2209.77C2212.08 1598.15 2213.71 1599.28 2213.71 1601.5C2213.71 1603.21 2212.8 1604.45 2211.21 1604.77V1604.81C2213.23 1605.08 2213.43 1606.68 2213.48 1608.03C2213.52 1608.91 2213.57 1610.44 2214.06 1611H2212.71C2212.44 1610.59 2212.4 1609.51 2212.35 1608.64C2212.27 1607.38 2212.08 1606.57 2211.64 1606.01C2211.25 1605.51 2210.65 1605.29 2209.97 1605.29H2205.15V1611H2203.92V1598.15ZM2205.15 1604.25H2209.74C2211.18 1604.25 2212.49 1603.33 2212.49 1601.75C2212.49 1600.09 2211.48 1599.19 2209.74 1599.19H2205.15V1604.25ZM2224.94 1598.15H2230.37C2232.82 1598.15 2234.5 1599.1 2234.5 1601.28C2234.5 1602.61 2233.67 1603.85 2232.26 1604.18V1604.21C2233.92 1604.43 2234.98 1605.67 2234.98 1607.35C2234.98 1609.72 2233.36 1611 2230.39 1611H2224.94V1598.15ZM2226.16 1603.78H2230.39C2232.17 1603.78 2233.27 1602.92 2233.27 1601.6C2233.27 1599.98 2232.28 1599.19 2230.36 1599.19H2226.16V1603.78ZM2226.16 1609.96H2230.39C2232.55 1609.96 2233.76 1609.15 2233.76 1607.31C2233.76 1605.67 2232.55 1604.83 2230.37 1604.83H2226.16V1609.96ZM2238.94 1598.15H2244.79C2247.1 1598.15 2248.74 1599.28 2248.74 1601.5C2248.74 1603.21 2247.82 1604.45 2246.23 1604.77V1604.81C2248.25 1605.08 2248.45 1606.68 2248.5 1608.03C2248.54 1608.91 2248.59 1610.44 2249.08 1611H2247.73C2247.46 1610.59 2247.42 1609.51 2247.37 1608.64C2247.3 1607.38 2247.1 1606.57 2246.67 1606.01C2246.27 1605.51 2245.68 1605.29 2244.99 1605.29H2240.17V1611H2238.94V1598.15ZM2240.17 1604.25H2244.76C2246.2 1604.25 2247.51 1603.33 2247.51 1601.75C2247.51 1600.09 2246.5 1599.19 2244.76 1599.19H2240.17V1604.25ZM2258.33 1597.88C2262.33 1597.88 2264.38 1601.01 2264.38 1604.57C2264.38 1608.05 2262.4 1611.27 2258.33 1611.27C2254.32 1611.27 2252.27 1608.16 2252.27 1604.57C2252.27 1601.03 2254.3 1597.88 2258.33 1597.88ZM2253.49 1604.57C2253.49 1607.4 2254.95 1610.23 2258.33 1610.23C2261.68 1610.23 2263.16 1607.42 2263.16 1604.57C2263.16 1601.78 2261.73 1598.92 2258.31 1598.92C2255.07 1598.92 2253.49 1601.59 2253.49 1604.57ZM2267 1598.15H2268.31L2271.23 1609.4H2271.26L2274.39 1598.15H2275.92L2279.07 1609.4H2279.11L2282.04 1598.15H2283.27L2279.72 1611H2278.43L2275.17 1599.5H2275.13L2271.89 1611H2270.56L2267 1598.15ZM2286.6 1598.15H2287.97L2295.46 1609.02H2295.5V1598.15H2296.72V1611H2295.35L2287.86 1600.13H2287.83V1611H2286.6V1598.15ZM2120.54 1628.15H2122.34L2126.79 1639.42L2131.22 1628.15H2133.02V1641H2131.79V1629.89H2131.76L2127.36 1641H2126.21L2121.8 1629.89H2121.77V1641H2120.54V1628.15ZM2141.33 1628.15H2142.7L2147.74 1641H2146.43L2144.86 1637H2139.01L2137.46 1641H2136.15L2141.33 1628.15ZM2141.96 1629.37L2139.39 1635.96H2144.45L2141.96 1629.37ZM2150.89 1628.15H2152.26L2159.75 1639.02H2159.78V1628.15H2161.01V1641H2159.64L2152.15 1630.13H2152.12V1641H2150.89V1628.15ZM2178.05 1627.88C2180.57 1627.88 2182.89 1629.43 2183.21 1632.04H2181.99C2181.56 1630.07 2179.94 1628.92 2178.05 1628.92C2174.68 1628.92 2173.2 1631.71 2173.2 1634.57C2173.2 1637.33 2174.61 1640.23 2178.05 1640.23C2180.28 1640.23 2181.92 1638.55 2182.17 1636.1H2183.39C2183.05 1639.34 2180.98 1641.27 2178.05 1641.27C2174.05 1641.27 2171.98 1638.17 2171.98 1634.57C2171.98 1631.08 2173.96 1627.88 2178.05 1627.88ZM2192.65 1627.88C2196.64 1627.88 2198.7 1631.01 2198.7 1634.57C2198.7 1638.05 2196.72 1641.27 2192.65 1641.27C2188.63 1641.27 2186.58 1638.16 2186.58 1634.57C2186.58 1631.03 2188.62 1627.88 2192.65 1627.88ZM2187.81 1634.57C2187.81 1637.4 2189.26 1640.23 2192.65 1640.23C2196 1640.23 2197.47 1637.42 2197.47 1634.57C2197.47 1631.78 2196.05 1628.92 2192.63 1628.92C2189.39 1628.92 2187.81 1631.59 2187.81 1634.57ZM2202.61 1628.15H2203.83V1639.96H2211.03V1641H2202.61V1628.15ZM2214.28 1628.15H2215.5V1639.96H2222.7V1641H2214.28V1628.15ZM2225.94 1628.15H2234.82V1629.19H2227.17V1633.84H2234.33V1634.88H2227.17V1639.96H2234.91V1641H2225.94V1628.15ZM2244.07 1627.88C2246.59 1627.88 2248.91 1629.43 2249.23 1632.04H2248.01C2247.58 1630.07 2245.96 1628.92 2244.07 1628.92C2240.7 1628.92 2239.23 1631.71 2239.23 1634.57C2239.23 1637.33 2240.63 1640.23 2244.07 1640.23C2246.3 1640.23 2247.94 1638.55 2248.19 1636.1H2249.41C2249.07 1639.34 2247 1641.27 2244.07 1641.27C2240.07 1641.27 2238 1638.17 2238 1634.57C2238 1631.08 2239.98 1627.88 2244.07 1627.88ZM2251.9 1628.15H2262.09V1629.19H2257.61V1641H2256.38V1629.19H2251.9V1628.15ZM2265.38 1628.15H2266.6V1641H2265.38V1628.15ZM2276.66 1627.88C2280.66 1627.88 2282.71 1631.01 2282.71 1634.57C2282.71 1638.05 2280.73 1641.27 2276.66 1641.27C2272.65 1641.27 2270.6 1638.16 2270.6 1634.57C2270.6 1631.03 2272.63 1627.88 2276.66 1627.88ZM2271.82 1634.57C2271.82 1637.4 2273.28 1640.23 2276.66 1640.23C2280.01 1640.23 2281.49 1637.42 2281.49 1634.57C2281.49 1631.78 2280.06 1628.92 2276.64 1628.92C2273.4 1628.92 2271.82 1631.59 2271.82 1634.57ZM2286.6 1628.15H2287.97L2295.46 1639.02H2295.5V1628.15H2296.72V1641H2295.35L2287.86 1630.13H2287.83V1641H2286.6V1628.15ZM2162.13 1657.88C2164.85 1657.88 2166.9 1659.34 2166.9 1661.87H2165.68C2165.59 1659.97 2164.06 1658.92 2162.15 1658.92C2160.4 1658.92 2158.94 1659.64 2158.94 1661.48C2158.94 1662.81 2160.02 1663.22 2160.74 1663.4L2163.88 1664.18C2166.36 1664.79 2167.35 1665.89 2167.35 1667.6C2167.35 1668.86 2166.67 1671.27 2162.44 1671.27C2159.27 1671.27 2157.31 1669.81 2157.31 1667.09V1666.77H2158.53V1666.88C2158.53 1669.24 2160.13 1670.23 2162.69 1670.23C2164.15 1670.23 2166.13 1669.45 2166.13 1667.62C2166.13 1666.45 2165.23 1665.73 2163.55 1665.31L2160.62 1664.59C2158.71 1664.12 2157.72 1663.22 2157.72 1661.5C2157.72 1660.04 2158.73 1657.88 2162.13 1657.88ZM2171.17 1658.15H2172.39V1666.12C2172.39 1668.71 2173.45 1670.23 2176.15 1670.23C2178.74 1670.23 2179.93 1668.88 2179.93 1666.1V1658.15H2181.16V1666.34C2181.16 1669.34 2179.45 1671.27 2176.15 1671.27C2172.79 1671.27 2171.17 1669.24 2171.17 1666.34V1658.15ZM2185.58 1658.15H2187.38L2191.82 1669.42L2196.25 1658.15H2198.05V1671H2196.83V1659.89H2196.79L2192.4 1671H2191.25L2186.84 1659.89H2186.8V1671H2185.58V1658.15ZM2202.57 1658.15H2204.37L2208.82 1669.42L2213.25 1658.15H2215.05V1671H2213.82V1659.89H2213.79L2209.39 1671H2208.24L2203.83 1659.89H2203.8V1671H2202.57V1658.15ZM2219.6 1658.15H2228.48V1659.19H2220.83V1663.84H2227.99V1664.88H2220.83V1669.96H2228.57V1671H2219.6V1658.15ZM2232.27 1658.15H2238.12C2240.43 1658.15 2242.06 1659.28 2242.06 1661.5C2242.06 1663.21 2241.15 1664.45 2239.56 1664.77V1664.81C2241.58 1665.08 2241.78 1666.68 2241.83 1668.03C2241.87 1668.91 2241.92 1670.44 2242.41 1671H2241.06C2240.79 1670.59 2240.75 1669.51 2240.7 1668.64C2240.62 1667.38 2240.43 1666.57 2239.99 1666.01C2239.6 1665.51 2239 1665.29 2238.32 1665.29H2233.5V1671H2232.27V1658.15ZM2233.5 1664.25H2238.09C2239.53 1664.25 2240.84 1663.33 2240.84 1661.75C2240.84 1660.09 2239.83 1659.19 2238.09 1659.19H2233.5V1664.25ZM2256.98 1658.29C2259.17 1658.29 2260.88 1659.5 2260.88 1661.84C2260.88 1662.74 2260.61 1663.53 2260.07 1664.27C2259.53 1665.02 2258.67 1665.76 2256.92 1666.82C2254.93 1668.05 2254.13 1668.95 2253.94 1669.96H2260.94V1671H2252.64C2252.71 1668.79 2253.9 1667.56 2256.29 1666.01C2257.68 1665.11 2258.42 1664.54 2258.98 1663.91C2259.48 1663.33 2259.75 1662.7 2259.75 1661.82C2259.75 1660.24 2258.51 1659.25 2256.92 1659.25C2255 1659.25 2254.08 1660.69 2254.08 1662.58V1662.76H2252.95V1662.58C2252.95 1660.02 2254.37 1658.29 2256.98 1658.29ZM2269 1658.29C2271.91 1658.29 2273.39 1660.54 2273.39 1664.77C2273.39 1669.07 2271.88 1671.27 2269 1671.27C2266.14 1671.27 2264.61 1669.09 2264.61 1664.79C2264.61 1660.45 2266.14 1658.29 2269 1658.29ZM2265.74 1664.77C2265.74 1668.43 2266.84 1670.32 2269 1670.32C2271.16 1670.32 2272.26 1668.44 2272.26 1664.77C2272.26 1661.12 2271.16 1659.25 2268.98 1659.25C2266.87 1659.25 2265.74 1661.1 2265.74 1664.77ZM2280.98 1658.29C2283.18 1658.29 2284.89 1659.5 2284.89 1661.84C2284.89 1662.74 2284.62 1663.53 2284.08 1664.27C2283.54 1665.02 2282.67 1665.76 2280.93 1666.82C2278.93 1668.05 2278.14 1668.95 2277.94 1669.96H2284.94V1671H2276.64C2276.72 1668.79 2277.9 1667.56 2280.3 1666.01C2281.68 1665.11 2282.42 1664.54 2282.98 1663.91C2283.48 1663.33 2283.75 1662.7 2283.75 1661.82C2283.75 1660.24 2282.51 1659.25 2280.93 1659.25C2279 1659.25 2278.08 1660.69 2278.08 1662.58V1662.76H2276.95V1662.58C2276.95 1660.02 2278.37 1658.29 2280.98 1658.29ZM2290.25 1658.56H2296.55V1659.61H2291.04L2290.23 1663.78L2290.27 1663.82C2290.91 1663.08 2291.92 1662.65 2292.93 1662.65C2295.49 1662.65 2297.16 1664.43 2297.16 1667C2297.16 1669.38 2295.27 1671.27 2292.79 1671.27C2290.5 1671.27 2288.7 1669.85 2288.65 1667.4H2289.78C2289.83 1669.15 2291.15 1670.32 2292.88 1670.32C2294.82 1670.32 2296.03 1668.71 2296.03 1666.88C2296.03 1665.01 2294.66 1663.6 2292.8 1663.6C2291.72 1663.6 2290.66 1664.09 2290 1665.1H2289.02L2290.25 1658.56Z" fill="black"/>
</svg>