<svg xmlns:xlink="http://www.w3.org/1999/xlink" xmlns="http://www.w3.org/2000/svg" width="2298" height="1700" viewBox="0 0 2298 1700" fill="none">
<g clip-path="url(#clip0_224_3621)">
<path d="M2211.46 1597.88C2214.17 1597.88 2216.23 1599.34 2216.23 1601.87H2215C2214.91 1599.97 2213.38 1598.92 2211.47 1598.92C2209.73 1598.92 2208.27 1599.64 2208.27 1601.48C2208.27 1602.81 2209.35 1603.22 2210.07 1603.4L2213.2 1604.18C2215.69 1604.79 2216.68 1605.89 2216.68 1607.6C2216.68 1608.86 2215.99 1611.27 2211.76 1611.27C2208.59 1611.27 2206.63 1609.81 2206.63 1607.09V1606.77H2207.86V1606.88C2207.86 1609.24 2209.46 1610.23 2212.01 1610.23C2213.47 1610.23 2215.45 1609.45 2215.45 1607.62C2215.45 1606.45 2214.55 1605.73 2212.88 1605.31L2209.94 1604.59C2208.04 1604.12 2207.05 1603.22 2207.05 1601.5C2207.05 1600.04 2208.05 1597.88 2211.46 1597.88ZM2220.49 1598.15H2221.72V1606.12C2221.72 1608.71 2222.78 1610.23 2225.48 1610.23C2228.07 1610.23 2229.26 1608.88 2229.26 1606.1V1598.15H2230.48V1606.34C2230.48 1609.34 2228.77 1611.27 2225.48 1611.27C2222.11 1611.27 2220.49 1609.24 2220.49 1606.34V1598.15ZM2234.92 1598.15H2236.29L2243.78 1609.02H2243.81V1598.15H2245.04V1611H2243.67L2236.18 1600.13H2236.15V1611H2234.92V1598.15ZM2249.61 1598.15H2255.46C2257.77 1598.15 2259.41 1599.28 2259.41 1601.5C2259.41 1603.21 2258.49 1604.45 2256.9 1604.77V1604.81C2258.92 1605.08 2259.12 1606.68 2259.17 1608.03C2259.21 1608.91 2259.26 1610.44 2259.75 1611H2258.4C2258.13 1610.59 2258.09 1609.51 2258.04 1608.64C2257.97 1607.38 2257.77 1606.57 2257.34 1606.01C2256.94 1605.51 2256.35 1605.29 2255.66 1605.29H2250.84V1611H2249.61V1598.15ZM2250.84 1604.25H2255.43C2256.87 1604.25 2258.18 1603.33 2258.18 1601.75C2258.18 1600.09 2257.17 1599.19 2255.43 1599.19H2250.84V1604.25ZM2263.62 1598.15H2272.49V1599.19H2264.84V1603.84H2272.01V1604.88H2264.84V1609.96H2272.58V1611H2263.62V1598.15ZM2280.05 1598.15H2281.42L2286.46 1611H2285.15L2283.58 1607H2277.73L2276.18 1611H2274.87L2280.05 1598.15ZM2280.68 1599.37L2278.11 1605.96H2283.17L2280.68 1599.37ZM2289.63 1598.15H2290.85V1609.96H2298.05V1611H2289.63V1598.15ZM2086.24 1628.15H2091.68C2094.13 1628.15 2095.8 1629.1 2095.8 1631.28C2095.8 1632.61 2094.97 1633.85 2093.57 1634.18V1634.21C2095.22 1634.43 2096.29 1635.67 2096.29 1637.35C2096.29 1639.72 2094.67 1641 2091.7 1641H2086.24V1628.15ZM2087.47 1633.78H2091.7C2093.48 1633.78 2094.58 1632.92 2094.58 1631.6C2094.58 1629.98 2093.59 1629.19 2091.66 1629.19H2087.47V1633.78ZM2087.47 1639.96H2091.7C2093.86 1639.96 2095.06 1639.15 2095.06 1637.31C2095.06 1635.67 2093.86 1634.83 2091.68 1634.83H2087.47V1639.96ZM2100.25 1628.15H2109.12V1629.19H2101.47V1633.84H2108.64V1634.88H2101.47V1639.96H2109.21V1641H2100.25V1628.15ZM2116.68 1628.15H2118.05L2123.09 1641H2121.77L2120.21 1637H2114.36L2112.81 1641H2111.5L2116.68 1628.15ZM2117.31 1629.37L2114.74 1635.96H2119.79L2117.31 1629.37ZM2126.13 1628.15H2127.35V1636.12C2127.35 1638.71 2128.41 1640.23 2131.11 1640.23C2133.71 1640.23 2134.89 1638.88 2134.89 1636.1V1628.15H2136.12V1636.34C2136.12 1639.34 2134.41 1641.27 2131.11 1641.27C2127.75 1641.27 2126.13 1639.24 2126.13 1636.34V1628.15ZM2139.19 1628.15H2149.38V1629.19H2144.9V1641H2143.67V1629.19H2139.19V1628.15ZM2151.1 1628.15H2152.56L2156.79 1634.66L2161 1628.15H2162.46L2157.39 1635.71V1641H2156.16V1635.71L2151.1 1628.15ZM2178.05 1627.88C2180.57 1627.88 2182.89 1629.43 2183.21 1632.04H2181.99C2181.56 1630.07 2179.94 1628.92 2178.05 1628.92C2174.68 1628.92 2173.2 1631.71 2173.2 1634.57C2173.2 1637.33 2174.61 1640.23 2178.05 1640.23C2180.28 1640.23 2181.92 1638.55 2182.17 1636.1H2183.39C2183.05 1639.34 2180.98 1641.27 2178.05 1641.27C2174.05 1641.27 2171.98 1638.17 2171.98 1634.57C2171.98 1631.08 2173.96 1627.88 2178.05 1627.88ZM2192.65 1627.88C2196.64 1627.88 2198.7 1631.01 2198.7 1634.57C2198.7 1638.05 2196.72 1641.27 2192.65 1641.27C2188.63 1641.27 2186.58 1638.16 2186.58 1634.57C2186.58 1631.03 2188.62 1627.88 2192.65 1627.88ZM2187.81 1634.57C2187.81 1637.4 2189.26 1640.23 2192.65 1640.23C2196 1640.23 2197.47 1637.42 2197.47 1634.57C2197.47 1631.78 2196.05 1628.92 2192.63 1628.92C2189.39 1628.92 2187.81 1631.59 2187.81 1634.57ZM2202.61 1628.15H2203.83V1639.96H2211.03V1641H2202.61V1628.15ZM2214.28 1628.15H2215.5V1639.96H2222.7V1641H2214.28V1628.15ZM2225.94 1628.15H2234.82V1629.19H2227.17V1633.84H2234.33V1634.88H2227.17V1639.96H2234.91V1641H2225.94V1628.15ZM2244.07 1627.88C2246.59 1627.88 2248.91 1629.43 2249.23 1632.04H2248.01C2247.58 1630.07 2245.96 1628.92 2244.07 1628.92C2240.7 1628.92 2239.23 1631.71 2239.23 1634.57C2239.23 1637.33 2240.63 1640.23 2244.07 1640.23C2246.3 1640.23 2247.94 1638.55 2248.19 1636.1H2249.41C2249.07 1639.34 2247 1641.27 2244.07 1641.27C2240.07 1641.27 2238 1638.17 2238 1634.57C2238 1631.08 2239.98 1627.88 2244.07 1627.88ZM2251.9 1628.15H2262.09V1629.19H2257.61V1641H2256.38V1629.19H2251.9V1628.15ZM2265.38 1628.15H2266.6V1641H2265.38V1628.15ZM2276.66 1627.88C2280.66 1627.88 2282.71 1631.01 2282.71 1634.57C2282.71 1638.05 2280.73 1641.27 2276.66 1641.27C2272.65 1641.27 2270.6 1638.16 2270.6 1634.57C2270.6 1631.03 2272.63 1627.88 2276.66 1627.88ZM2271.82 1634.57C2271.82 1637.4 2273.28 1640.23 2276.66 1640.23C2280.01 1640.23 2281.49 1637.42 2281.49 1634.57C2281.49 1631.78 2280.06 1628.92 2276.64 1628.92C2273.4 1628.92 2271.82 1631.59 2271.82 1634.57ZM2286.6 1628.15H2287.97L2295.46 1639.02H2295.5V1628.15H2296.72V1641H2295.35L2287.86 1630.13H2287.83V1641H2286.6V1628.15ZM2162.13 1657.88C2164.85 1657.88 2166.9 1659.34 2166.9 1661.87H2165.68C2165.59 1659.97 2164.06 1658.92 2162.15 1658.92C2160.4 1658.92 2158.94 1659.64 2158.94 1661.48C2158.94 1662.81 2160.02 1663.22 2160.74 1663.4L2163.88 1664.18C2166.36 1664.79 2167.35 1665.89 2167.35 1667.6C2167.35 1668.86 2166.67 1671.27 2162.44 1671.27C2159.27 1671.27 2157.31 1669.81 2157.31 1667.09V1666.77H2158.53V1666.88C2158.53 1669.24 2160.13 1670.23 2162.69 1670.23C2164.15 1670.23 2166.13 1669.45 2166.13 1667.62C2166.13 1666.45 2165.23 1665.73 2163.55 1665.31L2160.62 1664.59C2158.71 1664.12 2157.72 1663.22 2157.72 1661.5C2157.72 1660.04 2158.73 1657.88 2162.13 1657.88ZM2171.17 1658.15H2172.39V1666.12C2172.39 1668.71 2173.45 1670.23 2176.15 1670.23C2178.74 1670.23 2179.93 1668.88 2179.93 1666.1V1658.15H2181.16V1666.34C2181.16 1669.34 2179.45 1671.27 2176.15 1671.27C2172.79 1671.27 2171.17 1669.24 2171.17 1666.34V1658.15ZM2185.58 1658.15H2187.38L2191.82 1669.42L2196.25 1658.15H2198.05V1671H2196.83V1659.89H2196.79L2192.4 1671H2191.25L2186.84 1659.89H2186.8V1671H2185.58V1658.15ZM2202.57 1658.15H2204.37L2208.82 1669.42L2213.25 1658.15H2215.05V1671H2213.82V1659.89H2213.79L2209.39 1671H2208.24L2203.83 1659.89H2203.8V1671H2202.57V1658.15ZM2219.6 1658.15H2228.48V1659.19H2220.83V1663.84H2227.99V1664.88H2220.83V1669.96H2228.57V1671H2219.6V1658.15ZM2232.27 1658.15H2238.12C2240.43 1658.15 2242.06 1659.28 2242.06 1661.5C2242.06 1663.21 2241.15 1664.45 2239.56 1664.77V1664.81C2241.58 1665.08 2241.78 1666.68 2241.83 1668.03C2241.87 1668.91 2241.92 1670.44 2242.41 1671H2241.06C2240.79 1670.59 2240.75 1669.51 2240.7 1668.64C2240.62 1667.38 2240.43 1666.57 2239.99 1666.01C2239.6 1665.51 2239 1665.29 2238.32 1665.29H2233.5V1671H2232.27V1658.15ZM2233.5 1664.25H2238.09C2239.53 1664.25 2240.84 1663.33 2240.84 1661.75C2240.84 1660.09 2239.83 1659.19 2238.09 1659.19H2233.5V1664.25ZM2256.98 1658.29C2259.17 1658.29 2260.88 1659.5 2260.88 1661.84C2260.88 1662.74 2260.61 1663.53 2260.07 1664.27C2259.53 1665.02 2258.67 1665.76 2256.92 1666.82C2254.93 1668.05 2254.13 1668.95 2253.94 1669.96H2260.94V1671H2252.64C2252.71 1668.79 2253.9 1667.56 2256.29 1666.01C2257.68 1665.11 2258.42 1664.54 2258.98 1663.91C2259.48 1663.33 2259.75 1662.7 2259.75 1661.82C2259.75 1660.24 2258.51 1659.25 2256.92 1659.25C2255 1659.25 2254.08 1660.69 2254.08 1662.58V1662.76H2252.95V1662.58C2252.95 1660.02 2254.37 1658.29 2256.98 1658.29ZM2269 1658.29C2271.91 1658.29 2273.39 1660.54 2273.39 1664.77C2273.39 1669.07 2271.88 1671.27 2269 1671.27C2266.14 1671.27 2264.61 1669.09 2264.61 1664.79C2264.61 1660.45 2266.14 1658.29 2269 1658.29ZM2265.74 1664.77C2265.74 1668.43 2266.84 1670.32 2269 1670.32C2271.16 1670.32 2272.26 1668.44 2272.26 1664.77C2272.26 1661.12 2271.16 1659.25 2268.98 1659.25C2266.87 1659.25 2265.74 1661.1 2265.74 1664.77ZM2280.98 1658.29C2283.18 1658.29 2284.89 1659.5 2284.89 1661.84C2284.89 1662.74 2284.62 1663.53 2284.08 1664.27C2283.54 1665.02 2282.67 1665.76 2280.93 1666.82C2278.93 1668.05 2278.14 1668.95 2277.94 1669.96H2284.94V1671H2276.64C2276.72 1668.79 2277.9 1667.56 2280.3 1666.01C2281.68 1665.11 2282.42 1664.54 2282.98 1663.91C2283.48 1663.33 2283.75 1662.7 2283.75 1661.82C2283.75 1660.24 2282.51 1659.25 2280.93 1659.25C2279 1659.25 2278.08 1660.69 2278.08 1662.58V1662.76H2276.95V1662.58C2276.95 1660.02 2278.37 1658.29 2280.98 1658.29ZM2290.25 1658.56H2296.55V1659.61H2291.04L2290.23 1663.78L2290.27 1663.82C2290.91 1663.08 2291.92 1662.65 2292.93 1662.65C2295.49 1662.65 2297.16 1664.43 2297.16 1667C2297.16 1669.38 2295.27 1671.27 2292.79 1671.27C2290.5 1671.27 2288.7 1669.85 2288.65 1667.4H2289.78C2289.83 1669.15 2291.15 1670.32 2292.88 1670.32C2294.82 1670.32 2296.03 1668.71 2296.03 1666.88C2296.03 1665.01 2294.66 1663.6 2292.8 1663.6C2291.72 1663.6 2290.66 1664.09 2290 1665.1H2289.02L2290.25 1658.56Z" fill="black"/>
</g>
<defs>
<clipPath id="clip0_224_3621">
<rect width="2298" height="1700" fill="white"/>
</clipPath>
</defs>
</svg>