<svg xmlns:xlink="http://www.w3.org/1999/xlink" xmlns="http://www.w3.org/2000/svg" width="2298" height="1700" viewBox="0 0 2298 1700" fill="none">
<g clip-path="url(#clip0_14012_5783)">
<path d="M2188.78 1597.88C2191.3 1597.88 2193.63 1599.43 2193.95 1602.04H2192.73C2192.29 1600.07 2190.67 1598.92 2188.78 1598.92C2185.42 1598.92 2183.94 1601.71 2183.94 1604.57C2183.94 1607.33 2185.35 1610.23 2188.78 1610.23C2191.02 1610.23 2192.65 1608.55 2192.91 1606.1H2194.13C2193.79 1609.34 2191.72 1611.27 2188.78 1611.27C2184.79 1611.27 2182.72 1608.17 2182.72 1604.57C2182.72 1601.08 2184.7 1597.88 2188.78 1597.88ZM2201.77 1598.15H2203.13L2208.17 1611H2206.86L2205.29 1607H2199.44L2197.9 1611H2196.58L2201.77 1598.15ZM2202.4 1599.37L2199.82 1605.96H2204.88L2202.4 1599.37ZM2215.52 1597.88C2218.23 1597.88 2220.29 1599.34 2220.29 1601.87H2219.06C2218.97 1599.97 2217.44 1598.92 2215.53 1598.92C2213.79 1598.92 2212.33 1599.64 2212.33 1601.48C2212.33 1602.81 2213.41 1603.22 2214.13 1603.4L2217.26 1604.18C2219.75 1604.79 2220.74 1605.89 2220.74 1607.6C2220.74 1608.86 2220.05 1611.27 2215.82 1611.27C2212.65 1611.27 2210.69 1609.81 2210.69 1607.09V1606.77H2211.92V1606.88C2211.92 1609.24 2213.52 1610.23 2216.07 1610.23C2217.53 1610.23 2219.51 1609.45 2219.51 1607.62C2219.51 1606.45 2218.61 1605.73 2216.94 1605.31L2214 1604.59C2212.1 1604.12 2211.11 1603.22 2211.11 1601.5C2211.11 1600.04 2212.11 1597.88 2215.52 1597.88ZM2228.44 1598.15H2229.81L2234.85 1611H2233.53L2231.97 1607H2226.12L2224.57 1611H2223.26L2228.44 1598.15ZM2229.07 1599.37L2226.5 1605.96H2231.55L2229.07 1599.37ZM2245.03 1598.15H2246.25V1609.96H2253.45V1611H2245.03V1598.15ZM2260.46 1598.15H2261.82L2266.86 1611H2265.55L2263.98 1607H2258.13L2256.59 1611H2255.27L2260.46 1598.15ZM2261.09 1599.37L2258.51 1605.96H2263.57L2261.09 1599.37ZM2268.65 1598.15H2269.96L2272.88 1609.4H2272.91L2276.05 1598.15H2277.58L2280.73 1609.4H2280.76L2283.7 1598.15H2284.92L2281.37 1611H2280.08L2276.82 1599.5H2276.78L2273.54 1611H2272.21L2268.65 1598.15ZM2291.72 1598.15H2293.09L2298.13 1611H2296.81L2295.25 1607H2289.4L2287.85 1611H2286.54L2291.72 1598.15ZM2292.35 1599.37L2289.78 1605.96H2294.83L2292.35 1599.37ZM2119.89 1628.15H2121.26L2128.75 1639.02H2128.78V1628.15H2130.01V1641H2128.64L2121.15 1630.13H2121.12V1641H2119.89V1628.15ZM2134.58 1628.15H2143.46V1629.19H2135.81V1633.84H2142.97V1634.88H2135.81V1639.96H2143.55V1641H2134.58V1628.15ZM2145.96 1628.15H2147.27L2150.19 1639.4H2150.22L2153.36 1628.15H2154.89L2158.04 1639.4H2158.07L2161.01 1628.15H2162.23L2158.68 1641H2157.39L2154.13 1629.5H2154.09L2150.85 1641H2149.52L2145.96 1628.15ZM2178.05 1627.88C2180.57 1627.88 2182.89 1629.43 2183.21 1632.04H2181.99C2181.56 1630.07 2179.94 1628.92 2178.05 1628.92C2174.68 1628.92 2173.2 1631.71 2173.2 1634.57C2173.2 1637.33 2174.61 1640.23 2178.05 1640.23C2180.28 1640.23 2181.92 1638.55 2182.17 1636.1H2183.39C2183.05 1639.34 2180.98 1641.27 2178.05 1641.27C2174.05 1641.27 2171.98 1638.17 2171.98 1634.57C2171.98 1631.08 2173.96 1627.88 2178.05 1627.88ZM2192.65 1627.88C2196.64 1627.88 2198.7 1631.01 2198.7 1634.57C2198.7 1638.05 2196.72 1641.27 2192.65 1641.27C2188.63 1641.27 2186.58 1638.16 2186.58 1634.57C2186.58 1631.03 2188.62 1627.88 2192.65 1627.88ZM2187.81 1634.57C2187.81 1637.4 2189.26 1640.23 2192.65 1640.23C2196 1640.23 2197.47 1637.42 2197.47 1634.57C2197.47 1631.78 2196.05 1628.92 2192.63 1628.92C2189.39 1628.92 2187.81 1631.59 2187.81 1634.57ZM2202.61 1628.15H2203.83V1639.96H2211.03V1641H2202.61V1628.15ZM2214.28 1628.15H2215.5V1639.96H2222.7V1641H2214.28V1628.15ZM2225.94 1628.15H2234.82V1629.19H2227.17V1633.84H2234.33V1634.88H2227.17V1639.96H2234.91V1641H2225.94V1628.15ZM2244.07 1627.88C2246.59 1627.88 2248.91 1629.43 2249.23 1632.04H2248.01C2247.58 1630.07 2245.96 1628.92 2244.07 1628.92C2240.7 1628.92 2239.23 1631.71 2239.23 1634.57C2239.23 1637.33 2240.63 1640.23 2244.07 1640.23C2246.3 1640.23 2247.94 1638.55 2248.19 1636.1H2249.41C2249.07 1639.34 2247 1641.27 2244.07 1641.27C2240.07 1641.27 2238 1638.17 2238 1634.57C2238 1631.08 2239.98 1627.88 2244.07 1627.88ZM2251.9 1628.15H2262.09V1629.19H2257.61V1641H2256.38V1629.19H2251.9V1628.15ZM2265.38 1628.15H2266.6V1641H2265.38V1628.15ZM2276.66 1627.88C2280.66 1627.88 2282.71 1631.01 2282.71 1634.57C2282.71 1638.05 2280.73 1641.27 2276.66 1641.27C2272.65 1641.27 2270.6 1638.16 2270.6 1634.57C2270.6 1631.03 2272.63 1627.88 2276.66 1627.88ZM2271.82 1634.57C2271.82 1637.4 2273.28 1640.23 2276.66 1640.23C2280.01 1640.23 2281.49 1637.42 2281.49 1634.57C2281.49 1631.78 2280.06 1628.92 2276.64 1628.92C2273.4 1628.92 2271.82 1631.59 2271.82 1634.57ZM2286.6 1628.15H2287.97L2295.46 1639.02H2295.5V1628.15H2296.72V1641H2295.35L2287.86 1630.13H2287.83V1641H2286.6V1628.15ZM2194.28 1658.15H2195.51V1665.06L2202.98 1658.15H2204.63L2198.89 1663.46L2204.9 1671H2203.32L2197.97 1664.3L2195.51 1666.59V1671H2194.28V1658.15ZM2208.05 1658.15H2209.27V1671H2208.05V1658.15ZM2213.95 1658.15H2218.18C2221.97 1658.15 2224.3 1660.02 2224.3 1664.57C2224.3 1668.8 2222.3 1671 2218.16 1671H2213.95V1658.15ZM2215.17 1669.96H2217.76C2221.31 1669.96 2223.07 1668.59 2223.07 1664.57C2223.07 1660.65 2221.43 1659.19 2217.73 1659.19H2215.17V1669.96ZM2232.44 1657.88C2235.16 1657.88 2237.21 1659.34 2237.21 1661.87H2235.99C2235.9 1659.97 2234.37 1658.92 2232.46 1658.92C2230.72 1658.92 2229.26 1659.64 2229.26 1661.48C2229.26 1662.81 2230.34 1663.22 2231.06 1663.4L2234.19 1664.18C2236.67 1664.79 2237.66 1665.89 2237.66 1667.6C2237.66 1668.86 2236.98 1671.27 2232.75 1671.27C2229.58 1671.27 2227.62 1669.81 2227.62 1667.09V1666.77H2228.84V1666.88C2228.84 1669.24 2230.45 1670.23 2233 1670.23C2234.46 1670.23 2236.44 1669.45 2236.44 1667.62C2236.44 1666.45 2235.54 1665.73 2233.87 1665.31L2230.93 1664.59C2229.02 1664.12 2228.03 1663.22 2228.03 1661.5C2228.03 1660.04 2229.04 1657.88 2232.44 1657.88ZM2252.79 1657.88C2255.51 1657.88 2257.56 1659.34 2257.56 1661.87H2256.34C2256.25 1659.97 2254.72 1658.92 2252.81 1658.92C2251.06 1658.92 2249.61 1659.64 2249.61 1661.48C2249.61 1662.81 2250.69 1663.22 2251.41 1663.4L2254.54 1664.18C2257.02 1664.79 2258.01 1665.89 2258.01 1667.6C2258.01 1668.86 2257.33 1671.27 2253.1 1671.27C2249.93 1671.27 2247.97 1669.81 2247.97 1667.09V1666.77H2249.19V1666.88C2249.19 1669.24 2250.79 1670.23 2253.35 1670.23C2254.81 1670.23 2256.79 1669.45 2256.79 1667.62C2256.79 1666.45 2255.89 1665.73 2254.21 1665.31L2251.28 1664.59C2249.37 1664.12 2248.38 1663.22 2248.38 1661.5C2248.38 1660.04 2249.39 1657.88 2252.79 1657.88ZM2266.13 1657.88C2268.85 1657.88 2270.9 1659.34 2270.9 1661.87H2269.68C2269.59 1659.97 2268.06 1658.92 2266.15 1658.92C2264.4 1658.92 2262.94 1659.64 2262.94 1661.48C2262.94 1662.81 2264.02 1663.22 2264.74 1663.4L2267.88 1664.18C2270.36 1664.79 2271.35 1665.89 2271.35 1667.6C2271.35 1668.86 2270.67 1671.27 2266.44 1671.27C2263.27 1671.27 2261.31 1669.81 2261.31 1667.09V1666.77H2262.53V1666.88C2262.53 1669.24 2264.13 1670.23 2266.69 1670.23C2268.15 1670.23 2270.13 1669.45 2270.13 1667.62C2270.13 1666.45 2269.23 1665.73 2267.55 1665.31L2264.62 1664.59C2262.71 1664.12 2261.72 1663.22 2261.72 1661.5C2261.72 1660.04 2262.73 1657.88 2266.13 1657.88ZM2278.98 1658.29C2281.18 1658.29 2282.89 1659.5 2282.89 1661.84C2282.89 1662.74 2282.62 1663.53 2282.08 1664.27C2281.54 1665.02 2280.67 1665.76 2278.93 1666.82C2276.93 1668.05 2276.14 1668.95 2275.94 1669.96H2282.94V1671H2274.64C2274.72 1668.79 2275.9 1667.56 2278.3 1666.01C2279.68 1665.11 2280.42 1664.54 2280.98 1663.91C2281.48 1663.33 2281.75 1662.7 2281.75 1661.82C2281.75 1660.24 2280.51 1659.25 2278.93 1659.25C2277 1659.25 2276.08 1660.69 2276.08 1662.58V1662.76H2274.95V1662.58C2274.95 1660.02 2276.37 1658.29 2278.98 1658.29ZM2288.25 1658.56H2294.55V1659.61H2289.04L2288.23 1663.78L2288.27 1663.82C2288.91 1663.08 2289.92 1662.65 2290.93 1662.65C2293.49 1662.65 2295.16 1664.43 2295.16 1667C2295.16 1669.38 2293.27 1671.27 2290.79 1671.27C2288.5 1671.27 2286.7 1669.85 2286.65 1667.4H2287.78C2287.83 1669.15 2289.15 1670.32 2290.88 1670.32C2292.82 1670.32 2294.03 1668.71 2294.03 1666.88C2294.03 1665.01 2292.66 1663.6 2290.8 1663.6C2289.72 1663.6 2288.66 1664.09 2288 1665.1H2287.02L2288.25 1658.56Z" fill="black"/>
</g>
<defs>
<clipPath id="clip0_14012_5783">
<rect width="2298" height="1700" fill="white"/>
</clipPath>
</defs>
</svg>