<svg xmlns:xlink="http://www.w3.org/1999/xlink" xmlns="http://www.w3.org/2000/svg" width="2298" height="1700" viewBox="0 0 2298 1700" fill="none">
<g clip-path="url(#clip0_11643_236)">
<path d="M2210.47 1598.15H2211.69V1607.45C2211.69 1610.06 2210.67 1611.27 2207.97 1611.27C2205.54 1611.27 2204.37 1609.85 2204.37 1606.91V1606.88H2205.59C2205.59 1608.89 2206.04 1610.23 2208.07 1610.23C2209.82 1610.23 2210.47 1609.43 2210.47 1606.99V1598.15Z" fill="black"/>
<path d="M2221.67 1597.88C2225.66 1597.88 2227.71 1601.01 2227.71 1604.57C2227.71 1608.05 2225.73 1611.27 2221.67 1611.27C2217.65 1611.27 2215.6 1608.16 2215.6 1604.57C2215.6 1601.03 2217.63 1597.88 2221.67 1597.88ZM2216.82 1604.57C2216.82 1607.4 2218.28 1610.23 2221.67 1610.23C2225.01 1610.23 2226.49 1607.42 2226.49 1604.57C2226.49 1601.78 2225.07 1598.92 2221.65 1598.92C2218.41 1598.92 2216.82 1601.59 2216.82 1604.57Z" fill="black"/>
<path d="M2231.72 1598.15H2232.94V1611H2231.72V1598.15Z" fill="black"/>
<path d="M2237.6 1598.15H2238.97L2246.45 1609.02H2246.49V1598.15H2247.71V1611H2246.35L2238.86 1600.13H2238.82V1611H2237.6V1598.15Z" fill="black"/>
<path d="M2259.3 1598.15H2260.52V1609.96H2267.72V1611H2259.3V1598.15Z" fill="black"/>
<path d="M2271.06 1598.15H2272.28V1611H2271.06V1598.15Z" fill="black"/>
<path d="M2276.96 1598.15H2285.11V1599.19H2278.18V1603.84H2284.34V1604.88H2278.18V1611H2276.96V1598.15Z" fill="black"/>
<path d="M2288.63 1598.15H2297.5V1599.19H2289.85V1603.84H2297.01V1604.88H2289.85V1609.96H2297.59V1611H2288.63V1598.15Z" fill="black"/>
</g>
<defs>
<clipPath id="clip0_11643_236">
<rect width="2298" height="1700" fill="white"/>
</clipPath>
</defs>
</svg>