<svg xmlns:xlink="http://www.w3.org/1999/xlink" xmlns="http://www.w3.org/2000/svg" width="2298" height="1700" viewBox="0 0 2298 1700" fill="none">
<g clip-path="url(#clip0_5314_288)">
<path d="M2207.88 1598.15H2218.07V1599.19H2213.59V1611H2212.36V1599.19H2207.88V1598.15ZM2221.27 1598.15H2222.49V1603.73H2230.12V1598.15H2231.35V1611H2230.12V1604.77H2222.49V1611H2221.27V1598.15ZM2235.94 1598.15H2244.82V1599.19H2237.17V1603.84H2244.33V1604.88H2237.17V1609.96H2244.91V1611H2235.94V1598.15ZM2255.6 1598.15H2256.97L2264.46 1609.02H2264.5V1598.15H2265.72V1611H2264.35L2256.86 1600.13H2256.83V1611H2255.6V1598.15ZM2270.3 1598.15H2279.17V1599.19H2271.52V1603.84H2278.68V1604.88H2271.52V1609.96H2279.26V1611H2270.3V1598.15ZM2281.67 1598.15H2282.98L2285.9 1609.4H2285.94L2289.07 1598.15H2290.6L2293.75 1609.4H2293.78L2296.72 1598.15H2297.94L2294.4 1611H2293.1L2289.84 1599.5H2289.81L2286.57 1611H2285.23L2281.67 1598.15ZM2158.12 1628.15H2168.3V1629.19H2163.82V1641H2162.6V1629.19H2158.12V1628.15ZM2171.5 1628.15H2177.35C2179.66 1628.15 2181.3 1629.28 2181.3 1631.5C2181.3 1633.21 2180.38 1634.45 2178.79 1634.77V1634.81C2180.81 1635.08 2181.01 1636.68 2181.06 1638.03C2181.1 1638.91 2181.15 1640.44 2181.64 1641H2180.29C2180.02 1640.59 2179.98 1639.51 2179.93 1638.64C2179.86 1637.38 2179.66 1636.57 2179.23 1636.01C2178.83 1635.51 2178.24 1635.29 2177.55 1635.29H2172.73V1641H2171.5V1628.15ZM2172.73 1634.25H2177.32C2178.76 1634.25 2180.07 1633.33 2180.07 1631.75C2180.07 1630.09 2179.06 1629.19 2177.32 1629.19H2172.73V1634.25ZM2189.27 1628.15H2190.64L2195.68 1641H2194.36L2192.8 1637H2186.95L2185.4 1641H2184.09L2189.27 1628.15ZM2189.9 1629.37L2187.33 1635.96H2192.38L2189.9 1629.37ZM2196.53 1628.15H2197.84L2202.02 1639.65H2202.05L2206.19 1628.15H2207.49L2202.72 1640.98L2202.7 1641H2201.3L2196.53 1628.15ZM2210.62 1628.15H2219.49V1629.19H2211.84V1633.84H2219.01V1634.88H2211.84V1639.96H2219.58V1641H2210.62V1628.15ZM2223.29 1628.15H2224.51V1639.96H2231.71V1641H2223.29V1628.15ZM2241.93 1628.15H2243.73L2248.18 1639.42L2252.61 1628.15H2254.41V1641H2253.18V1629.89H2253.15L2248.75 1641H2247.6L2243.19 1629.89H2243.16V1641H2241.93V1628.15ZM2264.34 1627.88C2268.34 1627.88 2270.39 1631.01 2270.39 1634.57C2270.39 1638.05 2268.41 1641.27 2264.34 1641.27C2260.33 1641.27 2258.28 1638.16 2258.28 1634.57C2258.28 1631.03 2260.31 1627.88 2264.34 1627.88ZM2259.5 1634.57C2259.5 1637.4 2260.96 1640.23 2264.34 1640.23C2267.69 1640.23 2269.17 1637.42 2269.17 1634.57C2269.17 1631.78 2267.75 1628.92 2264.33 1628.92C2261.09 1628.92 2259.5 1631.59 2259.5 1634.57ZM2274.3 1628.15H2278.53C2282.33 1628.15 2284.65 1630.02 2284.65 1634.57C2284.65 1638.8 2282.66 1641 2278.52 1641H2274.3V1628.15ZM2275.53 1639.96H2278.12C2281.67 1639.96 2283.43 1638.59 2283.43 1634.57C2283.43 1630.65 2281.79 1629.19 2278.08 1629.19H2275.53V1639.96ZM2288.63 1628.15H2297.5V1629.19H2289.85V1633.84H2297.01V1634.88H2289.85V1639.96H2297.59V1641H2288.63V1628.15ZM2162.13 1657.88C2164.85 1657.88 2166.9 1659.34 2166.9 1661.87H2165.68C2165.59 1659.97 2164.06 1658.92 2162.15 1658.92C2160.4 1658.92 2158.94 1659.64 2158.94 1661.48C2158.94 1662.81 2160.02 1663.22 2160.74 1663.4L2163.88 1664.18C2166.36 1664.79 2167.35 1665.89 2167.35 1667.6C2167.35 1668.86 2166.67 1671.27 2162.44 1671.27C2159.27 1671.27 2157.31 1669.81 2157.31 1667.09V1666.77H2158.53V1666.88C2158.53 1669.24 2160.13 1670.23 2162.69 1670.23C2164.15 1670.23 2166.13 1669.45 2166.13 1667.62C2166.13 1666.45 2165.23 1665.73 2163.55 1665.31L2160.62 1664.59C2158.71 1664.12 2157.72 1663.22 2157.72 1661.5C2157.72 1660.04 2158.73 1657.88 2162.13 1657.88ZM2171.17 1658.15H2172.39V1666.12C2172.39 1668.71 2173.45 1670.23 2176.15 1670.23C2178.74 1670.23 2179.93 1668.88 2179.93 1666.1V1658.15H2181.16V1666.34C2181.16 1669.34 2179.45 1671.27 2176.15 1671.27C2172.79 1671.27 2171.17 1669.24 2171.17 1666.34V1658.15ZM2185.58 1658.15H2187.38L2191.82 1669.42L2196.25 1658.15H2198.05V1671H2196.83V1659.89H2196.79L2192.4 1671H2191.25L2186.84 1659.89H2186.8V1671H2185.58V1658.15ZM2202.57 1658.15H2204.37L2208.82 1669.42L2213.25 1658.15H2215.05V1671H2213.82V1659.89H2213.79L2209.39 1671H2208.24L2203.83 1659.89H2203.8V1671H2202.57V1658.15ZM2219.6 1658.15H2228.48V1659.19H2220.83V1663.84H2227.99V1664.88H2220.83V1669.96H2228.57V1671H2219.6V1658.15ZM2232.27 1658.15H2238.12C2240.43 1658.15 2242.06 1659.28 2242.06 1661.5C2242.06 1663.21 2241.15 1664.45 2239.56 1664.77V1664.81C2241.58 1665.08 2241.78 1666.68 2241.83 1668.03C2241.87 1668.91 2241.92 1670.44 2242.41 1671H2241.06C2240.79 1670.59 2240.75 1669.51 2240.7 1668.64C2240.62 1667.38 2240.43 1666.57 2239.99 1666.01C2239.6 1665.51 2239 1665.29 2238.32 1665.29H2233.5V1671H2232.27V1658.15ZM2233.5 1664.25H2238.09C2239.53 1664.25 2240.84 1663.33 2240.84 1661.75C2240.84 1660.09 2239.83 1659.19 2238.09 1659.19H2233.5V1664.25ZM2256.98 1658.29C2259.17 1658.29 2260.88 1659.5 2260.88 1661.84C2260.88 1662.74 2260.61 1663.53 2260.07 1664.27C2259.53 1665.02 2258.67 1665.76 2256.92 1666.82C2254.93 1668.05 2254.13 1668.95 2253.94 1669.96H2260.94V1671H2252.64C2252.71 1668.79 2253.9 1667.56 2256.29 1666.01C2257.68 1665.11 2258.42 1664.54 2258.98 1663.91C2259.48 1663.33 2259.75 1662.7 2259.75 1661.82C2259.75 1660.24 2258.51 1659.25 2256.92 1659.25C2255 1659.25 2254.08 1660.69 2254.08 1662.58V1662.76H2252.95V1662.58C2252.95 1660.02 2254.37 1658.29 2256.98 1658.29ZM2269 1658.29C2271.91 1658.29 2273.39 1660.54 2273.39 1664.77C2273.39 1669.07 2271.88 1671.27 2269 1671.27C2266.14 1671.27 2264.61 1669.09 2264.61 1664.79C2264.61 1660.45 2266.14 1658.29 2269 1658.29ZM2265.74 1664.77C2265.74 1668.43 2266.84 1670.32 2269 1670.32C2271.16 1670.32 2272.26 1668.44 2272.26 1664.77C2272.26 1661.12 2271.16 1659.25 2268.98 1659.25C2266.87 1659.25 2265.74 1661.1 2265.74 1664.77ZM2280.98 1658.29C2283.18 1658.29 2284.89 1659.5 2284.89 1661.84C2284.89 1662.74 2284.62 1663.53 2284.08 1664.27C2283.54 1665.02 2282.67 1665.76 2280.93 1666.82C2278.93 1668.05 2278.14 1668.95 2277.94 1669.96H2284.94V1671H2276.64C2276.72 1668.79 2277.9 1667.56 2280.3 1666.01C2281.68 1665.11 2282.42 1664.54 2282.98 1663.91C2283.48 1663.33 2283.75 1662.7 2283.75 1661.82C2283.75 1660.24 2282.51 1659.25 2280.93 1659.25C2279 1659.25 2278.08 1660.69 2278.08 1662.58V1662.76H2276.95V1662.58C2276.95 1660.02 2278.37 1658.29 2280.98 1658.29ZM2290.25 1658.56H2296.55V1659.61H2291.04L2290.23 1663.78L2290.27 1663.82C2290.91 1663.08 2291.92 1662.65 2292.93 1662.65C2295.49 1662.65 2297.16 1664.43 2297.16 1667C2297.16 1669.38 2295.27 1671.27 2292.79 1671.27C2290.5 1671.27 2288.7 1669.85 2288.65 1667.4H2289.78C2289.83 1669.15 2291.15 1670.32 2292.88 1670.32C2294.82 1670.32 2296.03 1668.71 2296.03 1666.88C2296.03 1665.01 2294.66 1663.6 2292.8 1663.6C2291.72 1663.6 2290.66 1664.09 2290 1665.1H2289.02L2290.25 1658.56Z" fill="black"/>
</g>
<defs>
<clipPath id="clip0_5314_288">
<rect width="2298" height="1700" fill="white"/>
</clipPath>
</defs>
</svg>