<svg xmlns:xlink="http://www.w3.org/1999/xlink" xmlns="http://www.w3.org/2000/svg" width="2298" height="1700" viewBox="0 0 2298 1700" fill="none">
<path d="M1540.14 1597.88C1542.86 1597.88 1544.91 1599.34 1544.91 1601.87H1543.68C1543.59 1599.97 1542.06 1598.92 1540.16 1598.92C1538.41 1598.92 1536.95 1599.64 1536.95 1601.48C1536.95 1602.81 1538.03 1603.22 1538.75 1603.4L1541.88 1604.18C1544.37 1604.79 1545.36 1605.89 1545.36 1607.6C1545.36 1608.86 1544.67 1611.27 1540.44 1611.27C1537.28 1611.27 1535.31 1609.81 1535.31 1607.09V1606.77H1536.54V1606.88C1536.54 1609.24 1538.14 1610.23 1540.7 1610.23C1542.15 1610.23 1544.13 1609.45 1544.13 1607.62C1544.13 1606.45 1543.23 1605.73 1541.56 1605.31L1538.63 1604.59C1536.72 1604.12 1535.73 1603.22 1535.73 1601.5C1535.73 1600.04 1536.74 1597.88 1540.14 1597.88ZM1549.17 1598.15H1550.4V1606.12C1550.4 1608.71 1551.46 1610.23 1554.16 1610.23C1556.75 1610.23 1557.94 1608.88 1557.94 1606.1V1598.15H1559.16V1606.34C1559.16 1609.34 1557.45 1611.27 1554.16 1611.27C1550.79 1611.27 1549.17 1609.24 1549.17 1606.34V1598.15ZM1563.59 1598.15H1565.39L1569.83 1609.42L1574.26 1598.15H1576.06V1611H1574.84V1599.89H1574.8L1570.41 1611H1569.26L1564.85 1599.89H1564.81V1611H1563.59V1598.15ZM1580.58 1598.15H1582.38L1586.83 1609.42L1591.25 1598.15H1593.05V1611H1591.83V1599.89H1591.79L1587.4 1611H1586.25L1581.84 1599.89H1581.8V1611H1580.58V1598.15ZM1597.61 1598.15H1606.48V1599.19H1598.83V1603.84H1606V1604.88H1598.83V1609.96H1606.57V1611H1597.61V1598.15ZM1610.28 1598.15H1616.13C1618.43 1598.15 1620.07 1599.28 1620.07 1601.5C1620.07 1603.21 1619.15 1604.45 1617.57 1604.77V1604.81C1619.59 1605.08 1619.78 1606.68 1619.84 1608.03C1619.87 1608.91 1619.93 1610.44 1620.41 1611H1619.06C1618.79 1610.59 1618.76 1609.51 1618.7 1608.64C1618.63 1607.38 1618.43 1606.57 1618 1606.01C1617.61 1605.51 1617.01 1605.29 1616.33 1605.29H1611.5V1611H1610.28V1598.15ZM1611.5 1604.25H1616.09C1617.53 1604.25 1618.85 1603.33 1618.85 1601.75C1618.85 1600.09 1617.84 1599.19 1616.09 1599.19H1611.5V1604.25ZM1631.26 1598.15H1633.06L1637.51 1609.42L1641.93 1598.15H1643.73V1611H1642.51V1599.89H1642.47L1638.08 1611H1636.93L1632.52 1599.89H1632.48V1611H1631.26V1598.15ZM1653.67 1597.88C1657.67 1597.88 1659.72 1601.01 1659.72 1604.57C1659.72 1608.05 1657.74 1611.27 1653.67 1611.27C1649.66 1611.27 1647.61 1608.16 1647.61 1604.57C1647.61 1601.03 1649.64 1597.88 1653.67 1597.88ZM1648.83 1604.57C1648.83 1607.4 1650.29 1610.23 1653.67 1610.23C1657.02 1610.23 1658.5 1607.42 1658.5 1604.57C1658.5 1601.78 1657.07 1598.92 1653.65 1598.92C1650.41 1598.92 1648.83 1601.59 1648.83 1604.57ZM1669.01 1597.88C1673.01 1597.88 1675.06 1601.01 1675.06 1604.57C1675.06 1608.05 1673.08 1611.27 1669.01 1611.27C1665 1611.27 1662.95 1608.16 1662.95 1604.57C1662.95 1601.03 1664.98 1597.88 1669.01 1597.88ZM1664.17 1604.57C1664.17 1607.4 1665.63 1610.23 1669.01 1610.23C1672.36 1610.23 1673.84 1607.42 1673.84 1604.57C1673.84 1601.78 1672.42 1598.92 1669 1598.92C1665.76 1598.92 1664.17 1601.59 1664.17 1604.57ZM1678.97 1598.15H1683.2C1687 1598.15 1689.32 1600.02 1689.32 1604.57C1689.32 1608.8 1687.33 1611 1683.19 1611H1678.97V1598.15ZM1680.2 1609.96H1682.79C1686.34 1609.96 1688.1 1608.59 1688.1 1604.57C1688.1 1600.65 1686.46 1599.19 1682.75 1599.19H1680.2V1609.96ZM1511.89 1628.15H1513.26L1520.75 1639.02H1520.78V1628.15H1522.01V1641H1520.64L1513.15 1630.13H1513.12V1641H1511.89V1628.15ZM1526.58 1628.15H1535.46V1629.19H1527.81V1633.84H1534.97V1634.88H1527.81V1639.96H1535.55V1641H1526.58V1628.15ZM1537.96 1628.15H1539.27L1542.19 1639.4H1542.22L1545.36 1628.15H1546.89L1550.04 1639.4H1550.07L1553.01 1628.15H1554.23L1550.68 1641H1549.39L1546.13 1629.5H1546.09L1542.85 1641H1541.52L1537.96 1628.15ZM1570.05 1627.88C1572.57 1627.88 1574.89 1629.43 1575.21 1632.04H1573.99C1573.56 1630.07 1571.94 1628.92 1570.05 1628.92C1566.68 1628.92 1565.2 1631.71 1565.2 1634.57C1565.2 1637.33 1566.61 1640.23 1570.05 1640.23C1572.28 1640.23 1573.92 1638.55 1574.17 1636.1H1575.39C1575.05 1639.34 1572.98 1641.27 1570.05 1641.27C1566.05 1641.27 1563.98 1638.17 1563.98 1634.57C1563.98 1631.08 1565.96 1627.88 1570.05 1627.88ZM1584.65 1627.88C1588.64 1627.88 1590.7 1631.01 1590.7 1634.57C1590.7 1638.05 1588.72 1641.27 1584.65 1641.27C1580.63 1641.27 1578.58 1638.16 1578.58 1634.57C1578.58 1631.03 1580.62 1627.88 1584.65 1627.88ZM1579.81 1634.57C1579.81 1637.4 1581.26 1640.23 1584.65 1640.23C1588 1640.23 1589.47 1637.42 1589.47 1634.57C1589.47 1631.78 1588.05 1628.92 1584.63 1628.92C1581.39 1628.92 1579.81 1631.59 1579.81 1634.57ZM1594.61 1628.15H1595.83V1639.96H1603.03V1641H1594.61V1628.15ZM1606.28 1628.15H1607.5V1639.96H1614.7V1641H1606.28V1628.15ZM1617.94 1628.15H1626.82V1629.19H1619.17V1633.84H1626.33V1634.88H1619.17V1639.96H1626.91V1641H1617.94V1628.15ZM1636.07 1627.88C1638.59 1627.88 1640.91 1629.43 1641.23 1632.04H1640.01C1639.58 1630.07 1637.96 1628.92 1636.07 1628.92C1632.7 1628.92 1631.23 1631.71 1631.23 1634.57C1631.23 1637.33 1632.63 1640.23 1636.07 1640.23C1638.3 1640.23 1639.94 1638.55 1640.19 1636.1H1641.41C1641.07 1639.34 1639 1641.27 1636.07 1641.27C1632.07 1641.27 1630 1638.17 1630 1634.57C1630 1631.08 1631.98 1627.88 1636.07 1627.88ZM1643.9 1628.15H1654.09V1629.19H1649.61V1641H1648.38V1629.19H1643.9V1628.15ZM1657.38 1628.15H1658.6V1641H1657.38V1628.15ZM1668.66 1627.88C1672.66 1627.88 1674.71 1631.01 1674.71 1634.57C1674.71 1638.05 1672.73 1641.27 1668.66 1641.27C1664.65 1641.27 1662.6 1638.16 1662.6 1634.57C1662.6 1631.03 1664.63 1627.88 1668.66 1627.88ZM1663.82 1634.57C1663.82 1637.4 1665.28 1640.23 1668.66 1640.23C1672.01 1640.23 1673.49 1637.42 1673.49 1634.57C1673.49 1631.78 1672.06 1628.92 1668.64 1628.92C1665.4 1628.92 1663.82 1631.59 1663.82 1634.57ZM1678.6 1628.15H1679.97L1687.46 1639.02H1687.5V1628.15H1688.72V1641H1687.35L1679.86 1630.13H1679.83V1641H1678.6V1628.15ZM1588.28 1658.15H1589.51V1665.06L1596.98 1658.15H1598.63L1592.89 1663.46L1598.9 1671H1597.32L1591.97 1664.3L1589.51 1666.59V1671H1588.28V1658.15ZM1602.05 1658.15H1603.27V1671H1602.05V1658.15ZM1607.95 1658.15H1612.18C1615.97 1658.15 1618.3 1660.02 1618.3 1664.57C1618.3 1668.8 1616.3 1671 1612.16 1671H1607.95V1658.15ZM1609.17 1669.96H1611.76C1615.31 1669.96 1617.07 1668.59 1617.07 1664.57C1617.07 1660.65 1615.43 1659.19 1611.73 1659.19H1609.17V1669.96ZM1626.44 1657.88C1629.16 1657.88 1631.21 1659.34 1631.21 1661.87H1629.99C1629.9 1659.97 1628.37 1658.92 1626.46 1658.92C1624.72 1658.92 1623.26 1659.64 1623.26 1661.48C1623.26 1662.81 1624.34 1663.22 1625.06 1663.4L1628.19 1664.18C1630.67 1664.79 1631.66 1665.89 1631.66 1667.6C1631.66 1668.86 1630.98 1671.27 1626.75 1671.27C1623.58 1671.27 1621.62 1669.81 1621.62 1667.09V1666.77H1622.84V1666.88C1622.84 1669.24 1624.45 1670.23 1627 1670.23C1628.46 1670.23 1630.44 1669.45 1630.44 1667.62C1630.44 1666.45 1629.54 1665.73 1627.87 1665.31L1624.93 1664.59C1623.02 1664.12 1622.03 1663.22 1622.03 1661.5C1622.03 1660.04 1623.04 1657.88 1626.44 1657.88ZM1646.79 1657.88C1649.51 1657.88 1651.56 1659.34 1651.56 1661.87H1650.34C1650.25 1659.97 1648.72 1658.92 1646.81 1658.92C1645.06 1658.92 1643.61 1659.64 1643.61 1661.48C1643.61 1662.81 1644.69 1663.22 1645.41 1663.4L1648.54 1664.18C1651.02 1664.79 1652.01 1665.89 1652.01 1667.6C1652.01 1668.86 1651.33 1671.27 1647.1 1671.27C1643.93 1671.27 1641.97 1669.81 1641.97 1667.09V1666.77H1643.19V1666.88C1643.19 1669.24 1644.79 1670.23 1647.35 1670.23C1648.81 1670.23 1650.79 1669.45 1650.79 1667.62C1650.79 1666.45 1649.89 1665.73 1648.21 1665.31L1645.28 1664.59C1643.37 1664.12 1642.38 1663.22 1642.38 1661.5C1642.38 1660.04 1643.39 1657.88 1646.79 1657.88ZM1660.13 1657.88C1662.85 1657.88 1664.9 1659.34 1664.9 1661.87H1663.68C1663.59 1659.97 1662.06 1658.92 1660.15 1658.92C1658.4 1658.92 1656.94 1659.64 1656.94 1661.48C1656.94 1662.81 1658.02 1663.22 1658.74 1663.4L1661.88 1664.18C1664.36 1664.79 1665.35 1665.89 1665.35 1667.6C1665.35 1668.86 1664.67 1671.27 1660.44 1671.27C1657.27 1671.27 1655.31 1669.81 1655.31 1667.09V1666.77H1656.53V1666.88C1656.53 1669.24 1658.13 1670.23 1660.69 1670.23C1662.15 1670.23 1664.13 1669.45 1664.13 1667.62C1664.13 1666.45 1663.23 1665.73 1661.55 1665.31L1658.62 1664.59C1656.71 1664.12 1655.72 1663.22 1655.72 1661.5C1655.72 1660.04 1656.73 1657.88 1660.13 1657.88ZM1672.98 1658.29C1675.18 1658.29 1676.89 1659.5 1676.89 1661.84C1676.89 1662.74 1676.62 1663.53 1676.08 1664.27C1675.54 1665.02 1674.67 1665.76 1672.93 1666.82C1670.93 1668.05 1670.14 1668.95 1669.94 1669.96H1676.94V1671H1668.64C1668.72 1668.79 1669.9 1667.56 1672.3 1666.01C1673.68 1665.11 1674.42 1664.54 1674.98 1663.91C1675.48 1663.33 1675.75 1662.7 1675.75 1661.82C1675.75 1660.24 1674.51 1659.25 1672.93 1659.25C1671 1659.25 1670.08 1660.69 1670.08 1662.58V1662.76H1668.95V1662.58C1668.95 1660.02 1670.37 1658.29 1672.98 1658.29ZM1682.25 1658.56H1688.55V1659.61H1683.04L1682.23 1663.78L1682.27 1663.82C1682.91 1663.08 1683.92 1662.65 1684.93 1662.65C1687.49 1662.65 1689.16 1664.43 1689.16 1667C1689.16 1669.38 1687.27 1671.27 1684.79 1671.27C1682.5 1671.27 1680.7 1669.85 1680.65 1667.4H1681.78C1681.83 1669.15 1683.15 1670.32 1684.88 1670.32C1686.82 1670.32 1688.03 1668.71 1688.03 1666.88C1688.03 1665.01 1686.66 1663.6 1684.8 1663.6C1683.72 1663.6 1682.66 1664.09 1682 1665.1H1681.02L1682.25 1658.56Z" fill="black"/>
</svg>